<svg xmlns="http://www.w3.org/2000/svg" viewBox="0 0 64 64" fill="none">
  <path d="M32 8 C20 8 12 16 12 26 C12 30 14 34 18 37 L18 54 L46 54 L46 37 C50 34 52 30 52 26 C52 16 44 8 32 8Z" fill="#ff5c7a" opacity="0.15"/>
  <path d="M32 8 C20 8 12 16 12 26 C12 30 14 34 18 37 L18 54 L46 54 L46 37 C50 34 52 30 52 26 C52 16 44 8 32 8Z" stroke="#ff5c7a" stroke-width="2" fill="none"/>
  <line x1="32" y1="10" x2="32" y2="54" stroke="#ff5c7a" stroke-width="1.5" opacity="0.6"/>
  <path d="M20 20 Q24 24 28 20 Q30 24 32 22" stroke="#ff8fa3" stroke-width="1.5" fill="none"/>
  <path d="M44 20 Q40 24 36 20 Q34 24 32 22" stroke="#ff8fa3" stroke-width="1.5" fill="none"/>
  <circle cx="32" cy="26" r="3" fill="#ff5c7a"/>
  <path d="M18 40 L46 40" stroke="#ff5c7a" stroke-width="1" opacity="0.4"/>
  <path d="M20 46 L44 46" stroke="#ff5c7a" stroke-width="1" opacity="0.4"/>
</svg>
